<svg xmlns="http://www.w3.org/2000/svg" viewBox="0 0 64 64">
  <rect width="64" height="64" rx="14" fill="#7c3aed" />
  <g transform="translate(8 8) scale(1.5)">
    <path
      fill="#ffffff"
      fill-rule="evenodd"
      d="M6 3h20a3 3 0 0 1 3 3v12a3 3 0 0 1-3 3h-5v5a3 3 0 0 1-3 3H6a3 3 0 0 1-3-3V6a3 3 0 0 1 3-3Zm4 9v12h6v-6a2 2 0 0 1 2-2h6v-4H10Z"
      clip-rule="evenodd"
    />
    <circle cx="9" cy="7.5" r="1.25" fill="#7c3aed" />
    <circle cx="13" cy="7.5" r="1.25" fill="#7c3aed" />
    <circle cx="17" cy="7.5" r="1.25" fill="#7c3aed" />
  </g>
</svg>
